<svg width="40" height="16" viewBox="0 0 40 16" fill="none" xmlns="http://www.w3.org/2000/svg">
<rect x="0.8125" y="0.537109" width="14.885" height="14.6332" rx="0.559586" fill="white"/>
<mask id="mask0_2396_217" style="mask-type:luminance" maskUnits="userSpaceOnUse" x="6" y="5" width="34" height="6">
<path d="M39.5206 5.09766H6.4375V10.6003H39.5206V5.09766Z" fill="white"/>
</mask>
<g mask="url(#mask0_2396_217)">
<path d="M6.4375 5.49026V10.2076C6.4375 10.4285 6.60926 10.6003 6.8301 10.6003C7.05094 10.6003 7.22271 10.4285 7.22271 10.2076V5.49026C7.22271 5.26942 7.05094 5.09766 6.8301 5.09766C6.60926 5.09766 6.4375 5.26942 6.4375 5.49026ZM10.1672 10.2076V8.74765C10.1672 8.0974 9.63968 7.56984 8.98943 7.56984H8.92195L10.1059 5.70497C10.1427 5.64362 10.1672 5.57001 10.1672 5.49026C10.1672 5.26942 9.99548 5.09766 9.77464 5.09766C9.63354 5.09766 9.51699 5.17127 9.44338 5.27555L7.48649 8.34891H8.98943C9.20413 8.34891 9.38203 8.52681 9.38203 8.74152V10.2015C9.38203 10.4224 9.5538 10.5941 9.77464 10.5941C9.99548 10.6003 10.1672 10.4224 10.1672 10.2076Z" fill="black"/>
</g>
</svg>
