<svg width="27" height="5" viewBox="0 0 27 5" fill="none" xmlns="http://www.w3.org/2000/svg">
<path d="M2.27829 0.296875L2.75647 1.76857H4.3039L3.05201 2.67812L3.53019 4.14982L2.27829 3.24026L1.02639 4.14982L1.50458 2.67812L0.25268 1.76857H1.80011L2.27829 0.296875Z" fill="black"/>
<path d="M7.77829 0.296875L8.25647 1.76857H9.8039L8.55201 2.67812L9.03019 4.14982L7.77829 3.24026L6.52639 4.14982L7.00458 2.67812L5.75268 1.76857H7.30011L7.77829 0.296875Z" fill="black"/>
<path d="M13.2744 0.296875L13.7526 1.76857H15.3L14.0481 2.67812L14.5263 4.14982L13.2744 3.24026L12.0225 4.14982L12.5007 2.67812L11.2488 1.76857H12.7962L13.2744 0.296875Z" fill="black"/>
<path d="M18.7744 0.296875L19.2526 1.76857H20.8L19.5481 2.67812L20.0263 4.14982L18.7744 3.24026L17.5225 4.14982L18.0007 2.67812L16.7488 1.76857H18.2962L18.7744 0.296875Z" fill="black"/>
<path d="M24.2744 0.296875L24.7526 1.76857H26.3L25.0481 2.67812L25.5263 4.14982L24.2744 3.24026L23.0225 4.14982L23.5007 2.67812L22.2488 1.76857H23.7962L24.2744 0.296875Z" fill="black"/>
</svg>
